Oxanium-Medium.ufo
<glyph name="exclam" format="2">
  <advance width="265"/>
  <unicode hex="0021"/>
  <outline>
    <contour>
      <point x="75" y="0" type="line"/>
      <point x="75" y="120" type="line"/>
      <point x="190" y="120" type="line"/>
      <point x="190" y="0" type="line"/>
    </contour>
    <contour>
      <point x="82" y="214" type="line"/>
      <point x="82" y="690" type="line"/>
      <point x="184" y="690" type="line"/>
      <point x="184" y="214" type="line"/>
    </contour>
  </outline>
</glyph>
<glyph name="dollar" format="2">
  <advance width="578"/>
  <unicode hex="0024"/>
  <outline>
    <contour>
      <point x="65" y="40" type="line"/>
      <point x="65" y="92" type="line"/>
      <point x="354" y="92" type="line" smooth="yes"/>
      <point x="411" y="92"/>
      <point x="411" y="149" type="qcurve" smooth="yes"/>
      <point x="411" y="213" type="line" smooth="yes"/>
      <point x="411" y="261"/>
      <point x="367" y="270" type="qcurve" smooth="yes"/>
      <point x="178" y="308" type="line" smooth="yes"/>
      <point x="65" y="330"/>
      <point x="65" y="460" type="qcurve" smooth="yes"/>
      <point x="65" y="502" type="line" smooth="yes"/>
      <point x="65" y="660"/>
      <point x="223" y="660" type="qcurve" smooth="yes"/>
      <point x="246" y="660" type="line"/>
      <point x="246" y="780" type="line"/>
      <point x="332" y="780" type="line"/>
      <point x="332" y="660" type="line"/>
      <point x="441" y="660" type="line"/>
      <point x="493" y="620" type="line"/>
      <point x="493" y="568" type="line"/>
      <point x="224" y="568" type="line" smooth="yes"/>
      <point x="167" y="568"/>
      <point x="167" y="511" type="qcurve" smooth="yes"/>
      <point x="167" y="455" type="line" smooth="yes"/>
      <point x="167" y="407"/>
      <point x="211" y="398" type="qcurve" smooth="yes"/>
      <point x="400" y="360" type="line" smooth="yes"/>
      <point x="513" y="338"/>
      <point x="513" y="209" type="qcurve" smooth="yes"/>
      <point x="513" y="158" type="line" smooth="yes"/>
      <point x="513" y="0"/>
      <point x="355" y="0" type="qcurve" smooth="yes"/>
      <point x="332" y="0" type="line"/>
      <point x="332" y="-120" type="line"/>
      <point x="246" y="-120" type="line"/>
      <point x="246" y="0" type="line"/>
      <point x="117" y="0" type="line"/>
    </contour>
  </outline>
</glyph>
<glyph name="ampersand" format="2">
  <advance width="665"/>
  <unicode hex="0026"/>
  <outline>
    <contour>
      <point x="68" y="154" type="qcurve" smooth="yes"/>
      <point x="68" y="254" type="line" smooth="yes"/>
      <point x="68" y="306"/>
      <point x="101" y="334" type="qcurve" smooth="yes"/>
      <point x="143" y="369" type="line"/>
      <point x="108" y="411" type="line" smooth="yes"/>
      <point x="88" y="435"/>
      <point x="88" y="469" type="qcurve" smooth="yes"/>
      <point x="88" y="536" type="line" smooth="yes"/>
      <point x="88" y="690"/>
      <point x="241" y="690" type="qcurve" smooth="yes"/>
      <point x="429" y="690" type="line"/>
      <point x="475" y="656" type="line"/>
      <point x="475" y="605" type="line"/>
      <point x="244" y="605" type="line" smooth="yes"/>
      <point x="185" y="605"/>
      <point x="185" y="546" type="qcurve" smooth="yes"/>
      <point x="185" y="465" type="line" smooth="yes"/>
      <point x="185" y="406"/>
      <point x="244" y="406" type="qcurve" smooth="yes"/>
      <point x="625" y="406" type="line"/>
      <point x="625" y="321" type="line"/>
      <point x="525" y="321" type="line"/>
      <point x="525" y="0" type="line"/>
      <point x="221" y="0" type="line" smooth="yes"/>
      <point x="68" y="0"/>
    </contour>
    <contour>
      <point x="165" y="144" type="line" smooth="yes"/>
      <point x="165" y="85"/>
      <point x="224" y="85" type="qcurve" smooth="yes"/>
      <point x="427" y="85" type="line"/>
      <point x="427" y="321" type="line"/>
      <point x="224" y="321" type="line" smooth="yes"/>
      <point x="165" y="321"/>
      <point x="165" y="262" type="qcurve" smooth="yes"/>
    </contour>
  </outline>
</glyph>
<glyph name="quotesingle" format="2">
  <advance width="224"/>
  <unicode hex="0027"/>
  <outline>
    <contour>
      <point x="68" y="484" type="line"/>
      <point x="68" y="740" type="line"/>
      <point x="157" y="740" type="line"/>
      <point x="157" y="484" type="line"/>
    </contour>
  </outline>
</glyph>
<glyph name="parenleft" format="2">
  <advance width="321"/>
  <unicode hex="0028"/>
  <outline>
    <contour>
      <point x="68" y="558"/>
      <point x="228" y="773" type="qcurve"/>
      <point x="302" y="717" type="line"/>
      <point x="168" y="529"/>
      <point x="168" y="51"/>
      <point x="302" y="-137" type="qcurve"/>
      <point x="228" y="-193" type="line"/>
      <point x="68" y="22"/>
    </contour>
  </outline>
</glyph>
<glyph name="parenright" format="2">
  <advance width="321"/>
  <unicode hex="0029"/>
  <outline>
    <contour>
      <point x="19" y="-137" type="line"/>
      <point x="153" y="51"/>
      <point x="153" y="529"/>
      <point x="19" y="717" type="qcurve"/>
      <point x="93" y="773" type="line"/>
      <point x="253" y="558"/>
      <point x="253" y="22"/>
      <point x="93" y="-193" type="qcurve"/>
    </contour>
  </outline>
</glyph>
<glyph name="plus" format="2">
  <advance width="578"/>
  <unicode hex="002B"/>
  <outline>
    <contour>
      <point x="63" y="293" type="line"/>
      <point x="63" y="377" type="line"/>
      <point x="244" y="377" type="line"/>
      <point x="244" y="570" type="line"/>
      <point x="334" y="570" type="line"/>
      <point x="334" y="377" type="line"/>
      <point x="515" y="377" type="line"/>
      <point x="515" y="293" type="line"/>
      <point x="334" y="293" type="line"/>
      <point x="334" y="100" type="line"/>
      <point x="244" y="100" type="line"/>
      <point x="244" y="293" type="line"/>
    </contour>
  </outline>
</glyph>
<glyph name="hyphen" format="2">
  <advance width="366"/>
  <unicode hex="002D"/>
  <outline>
    <contour>
      <point x="40" y="263" type="line"/>
      <point x="40" y="347" type="line"/>
      <point x="326" y="347" type="line"/>
      <point x="326" y="263" type="line"/>
    </contour>
  </outline>
</glyph>
<glyph name="two" format="2">
  <advance width="578"/>
  <unicode hex="0032"/>
  <outline>
    <contour>
      <point x="60" y="0" type="line"/>
      <point x="60" y="214" type="line" smooth="yes"/>
      <point x="60" y="344"/>
      <point x="173" y="366" type="qcurve" smooth="yes"/>
      <point x="372" y="406" type="line" smooth="yes"/>
      <point x="416" y="415"/>
      <point x="416" y="463" type="qcurve" smooth="yes"/>
      <point x="416" y="541" type="line" smooth="yes"/>
      <point x="416" y="598"/>
      <point x="359" y="598" type="qcurve" smooth="yes"/>
      <point x="80" y="598" type="line"/>
      <point x="80" y="650" type="line"/>
      <point x="132" y="690" type="line"/>
      <point x="360" y="690" type="line" smooth="yes"/>
      <point x="518" y="690"/>
      <point x="518" y="532" type="qcurve" smooth="yes"/>
      <point x="518" y="468" type="line" smooth="yes"/>
      <point x="518" y="338"/>
      <point x="405" y="316" type="qcurve" smooth="yes"/>
      <point x="206" y="276" type="line" smooth="yes"/>
      <point x="162" y="267"/>
      <point x="162" y="219" type="qcurve" smooth="yes"/>
      <point x="162" y="92" type="line"/>
      <point x="518" y="92" type="line"/>
      <point x="518" y="0" type="line"/>
    </contour>
  </outline>
</glyph>
<glyph name="four" format="2">
  <advance width="578"/>
  <unicode hex="0034"/>
  <outline>
    <contour>
      <point x="60" y="121" type="line"/>
      <point x="60" y="205" type="line"/>
      <point x="285" y="690" type="line"/>
      <point x="371" y="690" type="line"/>
      <point x="384" y="667" type="line"/>
      <point x="173" y="213" type="line"/>
      <point x="416" y="213" type="line"/>
      <point x="416" y="430" type="line"/>
      <point x="518" y="430" type="line"/>
      <point x="518" y="0" type="line"/>
      <point x="416" y="0" type="line"/>
      <point x="416" y="121" type="line"/>
    </contour>
  </outline>
</glyph>
<glyph name="five" format="2">
  <advance width="578"/>
  <unicode hex="0035"/>
  <outline>
    <contour>
      <point x="50" y="40" type="line"/>
      <point x="50" y="92" type="line"/>
      <point x="359" y="92" type="line" smooth="yes"/>
      <point x="416" y="92"/>
      <point x="416" y="149" type="qcurve" smooth="yes"/>
      <point x="416" y="267" type="line" smooth="yes"/>
      <point x="416" y="324"/>
      <point x="359" y="324" type="qcurve" smooth="yes"/>
      <point x="60" y="324" type="line"/>
      <point x="60" y="690" type="line"/>
      <point x="488" y="690" type="line"/>
      <point x="488" y="598" type="line"/>
      <point x="162" y="598" type="line"/>
      <point x="162" y="416" type="line"/>
      <point x="360" y="416" type="line" smooth="yes"/>
      <point x="518" y="416"/>
      <point x="518" y="258" type="qcurve" smooth="yes"/>
      <point x="518" y="158" type="line" smooth="yes"/>
      <point x="518" y="0"/>
      <point x="360" y="0" type="qcurve" smooth="yes"/>
      <point x="102" y="0" type="line"/>
    </contour>
  </outline>
</glyph>
<glyph name="six" format="2">
  <advance width="578"/>
  <unicode hex="0036"/>
  <outline>
    <contour>
      <point x="60" y="158" type="qcurve" smooth="yes"/>
      <point x="60" y="501" type="line" smooth="yes"/>
      <point x="60" y="690"/>
      <point x="250" y="690" type="qcurve" smooth="yes"/>
      <point x="426" y="690" type="line"/>
      <point x="478" y="650" type="line"/>
      <point x="478" y="598" type="line"/>
      <point x="246" y="598" type="line" smooth="yes"/>
      <point x="162" y="598"/>
      <point x="162" y="514" type="qcurve" smooth="yes"/>
      <point x="162" y="416" type="line"/>
      <point x="360" y="416" type="line" smooth="yes"/>
      <point x="518" y="416"/>
      <point x="518" y="258" type="qcurve" smooth="yes"/>
      <point x="518" y="158" type="line" smooth="yes"/>
      <point x="518" y="0"/>
      <point x="360" y="0" type="qcurve" smooth="yes"/>
      <point x="218" y="0" type="line" smooth="yes"/>
      <point x="60" y="0"/>
    </contour>
    <contour>
      <point x="162" y="149" type="line" smooth="yes"/>
      <point x="162" y="92"/>
      <point x="219" y="92" type="qcurve" smooth="yes"/>
      <point x="359" y="92" type="line" smooth="yes"/>
      <point x="416" y="92"/>
      <point x="416" y="149" type="qcurve" smooth="yes"/>
      <point x="416" y="267" type="line" smooth="yes"/>
      <point x="416" y="324"/>
      <point x="359" y="324" type="qcurve" smooth="yes"/>
      <point x="162" y="324" type="line"/>
    </contour>
  </outline>
</glyph>
<glyph name="seven" format="2">
  <advance width="578"/>
  <unicode hex="0037"/>
  <outline>
    <contour>
      <point x="60" y="598" type="line"/>
      <point x="60" y="690" type="line"/>
      <point x="518" y="690" type="line"/>
      <point x="518" y="503" type="line"/>
      <point x="254" y="0" type="line"/>
      <point x="163" y="0" type="line"/>
      <point x="150" y="23" type="line"/>
      <point x="416" y="525" type="line"/>
      <point x="416" y="598" type="line"/>
    </contour>
  </outline>
</glyph>
<glyph name="eight" format="2">
  <advance width="578"/>
  <unicode hex="0038"/>
  <outline>
    <contour>
      <point x="60" y="158" type="qcurve" smooth="yes"/>
      <point x="60" y="262" type="line" smooth="yes"/>
      <point x="60" y="302"/>
      <point x="85" y="327" type="qcurve" smooth="yes"/>
      <point x="120" y="362" type="line"/>
      <point x="85" y="397" type="line" smooth="yes"/>
      <point x="60" y="422"/>
      <point x="60" y="462" type="qcurve" smooth="yes"/>
      <point x="60" y="532" type="line" smooth="yes"/>
      <point x="60" y="690"/>
      <point x="218" y="690" type="qcurve" smooth="yes"/>
      <point x="360" y="690" type="line" smooth="yes"/>
      <point x="518" y="690"/>
      <point x="518" y="532" type="qcurve" smooth="yes"/>
      <point x="518" y="462" type="line" smooth="yes"/>
      <point x="518" y="422"/>
      <point x="493" y="397" type="qcurve" smooth="yes"/>
      <point x="458" y="362" type="line"/>
      <point x="493" y="327" type="line" smooth="yes"/>
      <point x="518" y="302"/>
      <point x="518" y="262" type="qcurve" smooth="yes"/>
      <point x="518" y="158" type="line" smooth="yes"/>
      <point x="518" y="0"/>
      <point x="360" y="0" type="qcurve" smooth="yes"/>
      <point x="218" y="0" type="line" smooth="yes"/>
      <point x="60" y="0"/>
    </contour>
    <contour>
      <point x="162" y="149" type="line" smooth="yes"/>
      <point x="162" y="92"/>
      <point x="219" y="92" type="qcurve" smooth="yes"/>
      <point x="359" y="92" type="line" smooth="yes"/>
      <point x="416" y="92"/>
      <point x="416" y="149" type="qcurve" smooth="yes"/>
      <point x="416" y="257" type="line" smooth="yes"/>
      <point x="416" y="314"/>
      <point x="359" y="314" type="qcurve" smooth="yes"/>
      <point x="219" y="314" type="line" smooth="yes"/>
      <point x="162" y="314"/>
      <point x="162" y="257" type="qcurve" smooth="yes"/>
    </contour>
    <contour>
      <point x="162" y="463" type="line" smooth="yes"/>
      <point x="162" y="406"/>
      <point x="219" y="406" type="qcurve" smooth="yes"/>
      <point x="359" y="406" type="line" smooth="yes"/>
      <point x="416" y="406"/>
      <point x="416" y="463" type="qcurve" smooth="yes"/>
      <point x="416" y="541" type="line" smooth="yes"/>
      <point x="416" y="598"/>
      <point x="359" y="598" type="qcurve" smooth="yes"/>
      <point x="219" y="598" type="line" smooth="yes"/>
      <point x="162" y="598"/>
      <point x="162" y="541" type="qcurve" smooth="yes"/>
    </contour>
  </outline>
</glyph>
<glyph name="less" format="2">
  <advance width="578"/>
  <unicode hex="003C"/>
  <outline>
    <contour>
      <point x="64" y="288" type="line"/>
      <point x="64" y="382" type="line"/>
      <point x="481" y="581" type="line"/>
      <point x="517" y="506" type="line"/>
      <point x="152" y="335" type="line"/>
      <point x="517" y="164" type="line"/>
      <point x="481" y="89" type="line"/>
    </contour>
  </outline>
</glyph>
<glyph name="equal" format="2">
  <advance width="578"/>
  <unicode hex="003D"/>
  <outline>
    <contour>
      <point x="63" y="183" type="line"/>
      <point x="63" y="267" type="line"/>
      <point x="515" y="267" type="line"/>
      <point x="515" y="183" type="line"/>
    </contour>
    <contour>
      <point x="63" y="403" type="line"/>
      <point x="63" y="487" type="line"/>
      <point x="515" y="487" type="line"/>
      <point x="515" y="403" type="line"/>
    </contour>
  </outline>
</glyph>
<glyph name="question" format="2">
  <advance width="507"/>
  <unicode hex="003F"/>
  <outline>
    <contour>
      <point x="40" y="598" type="line"/>
      <point x="40" y="650" type="line"/>
      <point x="92" y="690" type="line"/>
      <point x="300" y="690" type="line" smooth="yes"/>
      <point x="457" y="690"/>
      <point x="457" y="532" type="qcurve" smooth="yes"/>
      <point x="457" y="444" type="line" smooth="yes"/>
      <point x="457" y="287"/>
      <point x="300" y="287" type="qcurve" smooth="yes"/>
      <point x="267" y="287" type="line"/>
      <point x="267" y="214" type="line"/>
      <point x="165" y="214" type="line"/>
      <point x="165" y="379" type="line"/>
      <point x="299" y="379" type="line" smooth="yes"/>
      <point x="355" y="379"/>
      <point x="355" y="436" type="qcurve" smooth="yes"/>
      <point x="355" y="541" type="line" smooth="yes"/>
      <point x="355" y="598"/>
      <point x="299" y="598" type="qcurve" smooth="yes"/>
    </contour>
    <contour>
      <point x="158" y="0" type="line"/>
      <point x="158" y="120" type="line"/>
      <point x="273" y="120" type="line"/>
      <point x="273" y="0" type="line"/>
    </contour>
  </outline>
</glyph>
<glyph name="E" format="2">
  <advance width="594"/>
  <unicode hex="0045"/>
  <outline>
    <contour>
      <point x="88" y="0" type="line"/>
      <point x="88" y="690" type="line"/>
      <point x="544" y="690" type="line"/>
      <point x="544" y="598" type="line"/>
      <point x="190" y="598" type="line"/>
      <point x="190" y="406" type="line"/>
      <point x="514" y="406" type="line"/>
      <point x="514" y="314" type="line"/>
      <point x="190" y="314" type="line"/>
      <point x="190" y="92" type="line"/>
      <point x="544" y="92" type="line"/>
      <point x="544" y="0" type="line"/>
    </contour>
  </outline>
</glyph>
<glyph name="F" format="2">
  <advance width="574"/>
  <unicode hex="0046"/>
  <outline>
    <contour>
      <point x="88" y="0" type="line"/>
      <point x="88" y="690" type="line"/>
      <point x="544" y="690" type="line"/>
      <point x="544" y="598" type="line"/>
      <point x="190" y="598" type="line"/>
      <point x="190" y="376" type="line"/>
      <point x="514" y="376" type="line"/>
      <point x="514" y="284" type="line"/>
      <point x="190" y="284" type="line"/>
      <point x="190" y="0" type="line"/>
    </contour>
  </outline>
</glyph>
<glyph name="G" format="2">
  <advance width="672"/>
  <unicode hex="0047"/>
  <outline>
    <contour>
      <point x="78" y="158" type="qcurve" smooth="yes"/>
      <point x="78" y="532" type="line" smooth="yes"/>
      <point x="78" y="690"/>
      <point x="235" y="690" type="qcurve" smooth="yes"/>
      <point x="533" y="690" type="line"/>
      <point x="585" y="650" type="line"/>
      <point x="585" y="598" type="line"/>
      <point x="236" y="598" type="line" smooth="yes"/>
      <point x="180" y="598"/>
      <point x="180" y="541" type="qcurve" smooth="yes"/>
      <point x="180" y="149" type="line" smooth="yes"/>
      <point x="180" y="92"/>
      <point x="236" y="92" type="qcurve" smooth="yes"/>
      <point x="503" y="92" type="line"/>
      <point x="503" y="314" type="line"/>
      <point x="344" y="314" type="line"/>
      <point x="344" y="406" type="line"/>
      <point x="605" y="406" type="line"/>
      <point x="605" y="0" type="line"/>
      <point x="235" y="0" type="line" smooth="yes"/>
      <point x="78" y="0"/>
    </contour>
  </outline>
</glyph>
<glyph name="I" format="2">
  <advance width="277"/>
  <unicode hex="0049"/>
  <outline>
    <contour>
      <point x="88" y="0" type="line"/>
      <point x="88" y="690" type="line"/>
      <point x="190" y="690" type="line"/>
      <point x="190" y="0" type="line"/>
    </contour>
  </outline>
</glyph>
<glyph name="K" format="2">
  <advance width="643"/>
  <unicode hex="004B"/>
  <outline>
    <contour>
      <point x="88" y="0" type="line"/>
      <point x="88" y="690" type="line"/>
      <point x="190" y="690" type="line"/>
      <point x="190" y="360" type="line"/>
      <point x="485" y="690" type="line"/>
      <point x="579" y="690" type="line"/>
      <point x="590" y="668" type="line"/>
      <point x="354" y="406" type="line"/>
      <point x="613" y="22" type="line"/>
      <point x="603" y="0" type="line"/>
      <point x="509" y="0" type="line"/>
      <point x="288" y="332" type="line"/>
      <point x="190" y="224" type="line"/>
      <point x="190" y="0" type="line"/>
    </contour>
  </outline>
</glyph>
<glyph name="M" format="2">
  <advance width="878"/>
  <unicode hex="004D"/>
  <outline>
    <contour>
      <point x="88" y="0" type="line"/>
      <point x="88" y="690" type="line"/>
      <point x="217" y="690" type="line"/>
      <point x="439" y="216" type="line"/>
      <point x="662" y="690" type="line"/>
      <point x="791" y="690" type="line"/>
      <point x="791" y="0" type="line"/>
      <point x="689" y="0" type="line"/>
      <point x="689" y="526" type="line"/>
      <point x="488" y="97" type="line"/>
      <point x="391" y="97" type="line"/>
      <point x="190" y="526" type="line"/>
      <point x="190" y="0" type="line"/>
    </contour>
  </outline>
</glyph>
<glyph name="O" format="2">
  <advance width="702"/>
  <unicode hex="004F"/>
  <outline>
    <contour>
      <point x="78" y="158" type="qcurve" smooth="yes"/>
      <point x="78" y="532" type="line" smooth="yes"/>
      <point x="78" y="690"/>
      <point x="235" y="690" type="qcurve" smooth="yes"/>
      <point x="467" y="690" type="line" smooth="yes"/>
      <point x="625" y="690"/>
      <point x="625" y="532" type="qcurve" smooth="yes"/>
      <point x="625" y="158" type="line" smooth="yes"/>
      <point x="625" y="0"/>
      <point x="467" y="0" type="qcurve" smooth="yes"/>
      <point x="235" y="0" type="line" smooth="yes"/>
      <point x="78" y="0"/>
    </contour>
    <contour>
      <point x="180" y="149" type="line" smooth="yes"/>
      <point x="180" y="92"/>
      <point x="236" y="92" type="qcurve" smooth="yes"/>
      <point x="466" y="92" type="line" smooth="yes"/>
      <point x="523" y="92"/>
      <point x="523" y="149" type="qcurve" smooth="yes"/>
      <point x="523" y="541" type="line" smooth="yes"/>
      <point x="523" y="598"/>
      <point x="466" y="598" type="qcurve" smooth="yes"/>
      <point x="236" y="598" type="line" smooth="yes"/>
      <point x="180" y="598"/>
      <point x="180" y="541" type="qcurve" smooth="yes"/>
    </contour>
  </outline>
</glyph>
<glyph name="P" format="2">
  <advance width="632"/>
  <unicode hex="0050"/>
  <outline>
    <contour>
      <point x="88" y="0" type="line"/>
      <point x="88" y="690" type="line"/>
      <point x="417" y="690" type="line" smooth="yes"/>
      <point x="575" y="690"/>
      <point x="575" y="532" type="qcurve" smooth="yes"/>
      <point x="575" y="401" type="line" smooth="yes"/>
      <point x="575" y="244"/>
      <point x="417" y="244" type="qcurve" smooth="yes"/>
      <point x="190" y="244" type="line"/>
      <point x="190" y="0" type="line"/>
    </contour>
    <contour>
      <point x="190" y="336" type="line"/>
      <point x="416" y="336" type="line" smooth="yes"/>
      <point x="473" y="336"/>
      <point x="473" y="393" type="qcurve" smooth="yes"/>
      <point x="473" y="541" type="line" smooth="yes"/>
      <point x="473" y="598"/>
      <point x="416" y="598" type="qcurve" smooth="yes"/>
      <point x="190" y="598" type="line"/>
    </contour>
  </outline>
</glyph>
<glyph name="S" format="2">
  <advance width="582"/>
  <unicode hex="0053"/>
  <outline>
    <contour>
      <point x="58" y="40" type="line"/>
      <point x="58" y="92" type="line"/>
      <point x="366" y="92" type="line" smooth="yes"/>
      <point x="423" y="92"/>
      <point x="423" y="149" type="qcurve" smooth="yes"/>
      <point x="423" y="228" type="line" smooth="yes"/>
      <point x="423" y="276"/>
      <point x="380" y="285" type="qcurve" smooth="yes"/>
      <point x="171" y="327" type="line" smooth="yes"/>
      <point x="58" y="349"/>
      <point x="58" y="479" type="qcurve" smooth="yes"/>
      <point x="58" y="532" type="line" smooth="yes"/>
      <point x="58" y="690"/>
      <point x="215" y="690" type="qcurve" smooth="yes"/>
      <point x="453" y="690" type="line"/>
      <point x="505" y="650" type="line"/>
      <point x="505" y="598" type="line"/>
      <point x="216" y="598" type="line" smooth="yes"/>
      <point x="160" y="598"/>
      <point x="160" y="541" type="qcurve" smooth="yes"/>
      <point x="160" y="474" type="line" smooth="yes"/>
      <point x="160" y="426"/>
      <point x="203" y="417" type="qcurve" smooth="yes"/>
      <point x="412" y="376" type="line" smooth="yes"/>
      <point x="525" y="353"/>
      <point x="525" y="224" type="qcurve" smooth="yes"/>
      <point x="525" y="158" type="line" smooth="yes"/>
      <point x="525" y="0"/>
      <point x="367" y="0" type="qcurve" smooth="yes"/>
      <point x="109" y="0" type="line"/>
    </contour>
  </outline>
</glyph>
<glyph name="T" format="2">
  <advance width="598"/>
  <unicode hex="0054"/>
  <outline>
    <contour>
      <point x="24" y="598" type="line"/>
      <point x="24" y="690" type="line"/>
      <point x="574" y="690" type="line"/>
      <point x="574" y="598" type="line"/>
      <point x="350" y="598" type="line"/>
      <point x="350" y="0" type="line"/>
      <point x="248" y="0" type="line"/>
      <point x="248" y="598" type="line"/>
    </contour>
  </outline>
</glyph>
<glyph name="W" format="2">
  <advance width="931"/>
  <unicode hex="0057"/>
  <outline>
    <contour>
      <point x="29" y="669" type="line"/>
      <point x="44" y="690" type="line"/>
      <point x="128" y="690" type="line"/>
      <point x="260" y="92" type="line"/>
      <point x="274" y="92" type="line"/>
      <point x="416" y="617" type="line"/>
      <point x="515" y="617" type="line"/>
      <point x="657" y="92" type="line"/>
      <point x="671" y="92" type="line"/>
      <point x="803" y="690" type="line"/>
      <point x="886" y="690" type="line"/>
      <point x="901" y="669" type="line"/>
      <point x="750" y="0" type="line"/>
      <point x="583" y="0" type="line"/>
      <point x="465" y="445" type="line"/>
      <point x="348" y="0" type="line"/>
      <point x="181" y="0" type="line"/>
    </contour>
  </outline>
</glyph>
<glyph name="Y" format="2">
  <advance width="591"/>
  <unicode hex="0059"/>
  <outline>
    <contour>
      <point x="19" y="669" type="line"/>
      <point x="32" y="690" type="line"/>
      <point x="119" y="690" type="line"/>
      <point x="295" y="358" type="line"/>
      <point x="472" y="690" type="line"/>
      <point x="559" y="690" type="line"/>
      <point x="571" y="669" type="line"/>
      <point x="346" y="252" type="line"/>
      <point x="346" y="0" type="line"/>
      <point x="244" y="0" type="line"/>
      <point x="244" y="252" type="line"/>
    </contour>
  </outline>
</glyph>
<glyph name="Z" format="2">
  <advance width="602"/>
  <unicode hex="005A"/>
  <outline>
    <contour>
      <point x="48" y="0" type="line"/>
      <point x="48" y="80" type="line"/>
      <point x="417" y="598" type="line"/>
      <point x="58" y="598" type="line"/>
      <point x="58" y="690" type="line"/>
      <point x="545" y="690" type="line"/>
      <point x="545" y="610" type="line"/>
      <point x="175" y="92" type="line"/>
      <point x="555" y="92" type="line"/>
      <point x="555" y="0" type="line"/>
    </contour>
  </outline>
</glyph>
<glyph name="asciicircum" format="2">
  <advance width="547"/>
  <unicode hex="005E"/>
  <outline>
    <contour>
      <point x="38" y="348" type="line"/>
      <point x="226" y="690" type="line"/>
      <point x="321" y="690" type="line"/>
      <point x="510" y="348" type="line"/>
      <point x="434" y="306" type="line"/>
      <point x="274" y="600" type="line"/>
      <point x="113" y="306" type="line"/>
    </contour>
  </outline>
</glyph>
<glyph name="a" format="2">
  <advance width="544"/>
  <unicode hex="0061"/>
  <outline>
    <contour>
      <point x="204" y="0" type="line" smooth="yes"/>
      <point x="50" y="0"/>
      <point x="50" y="308"/>
      <point x="204" y="308" type="qcurve" smooth="yes"/>
      <point x="373" y="308" type="line"/>
      <point x="373" y="379" type="line" smooth="yes"/>
      <point x="373" y="437"/>
      <point x="315" y="437" type="qcurve" smooth="yes"/>
      <point x="101" y="437" type="line"/>
      <point x="101" y="488" type="line"/>
      <point x="147" y="522" type="line"/>
      <point x="317" y="522" type="line" smooth="yes"/>
      <point x="471" y="522"/>
      <point x="471" y="369" type="qcurve" smooth="yes"/>
      <point x="471" y="0" type="line"/>
    </contour>
    <contour>
      <point x="147" y="144" type="line" smooth="yes"/>
      <point x="147" y="85"/>
      <point x="206" y="85" type="qcurve" smooth="yes"/>
      <point x="373" y="85" type="line"/>
      <point x="373" y="226" type="line"/>
      <point x="206" y="226" type="line" smooth="yes"/>
      <point x="147" y="226"/>
      <point x="147" y="168" type="qcurve" smooth="yes"/>
    </contour>
  </outline>
</glyph>
<glyph name="c" format="2">
  <advance width="508"/>
  <unicode hex="0063"/>
  <outline>
    <contour>
      <point x="70" y="154" type="qcurve" smooth="yes"/>
      <point x="70" y="369" type="line" smooth="yes"/>
      <point x="70" y="522"/>
      <point x="223" y="522" type="qcurve" smooth="yes"/>
      <point x="416" y="522" type="line"/>
      <point x="462" y="488" type="line"/>
      <point x="462" y="437" type="line"/>
      <point x="226" y="437" type="line" smooth="yes"/>
      <point x="167" y="437"/>
      <point x="167" y="379" type="qcurve" smooth="yes"/>
      <point x="167" y="144" type="line" smooth="yes"/>
      <point x="167" y="85"/>
      <point x="226" y="85" type="qcurve" smooth="yes"/>
      <point x="462" y="85" type="line"/>
      <point x="462" y="34" type="line"/>
      <point x="416" y="0" type="line"/>
      <point x="223" y="0" type="line" smooth="yes"/>
      <point x="70" y="0"/>
    </contour>
  </outline>
</glyph>
<glyph name="d" format="2">
  <advance width="584"/>
  <unicode hex="0064"/>
  <outline>
    <contour>
      <point x="70" y="154" type="qcurve" smooth="yes"/>
      <point x="70" y="369" type="line" smooth="yes"/>
      <point x="70" y="522"/>
      <point x="223" y="522" type="qcurve" smooth="yes"/>
      <point x="409" y="522" type="line"/>
      <point x="409" y="740" type="line"/>
      <point x="507" y="740" type="line"/>
      <point x="507" y="0" type="line"/>
      <point x="223" y="0" type="line" smooth="yes"/>
      <point x="70" y="0"/>
    </contour>
    <contour>
      <point x="167" y="144" type="line" smooth="yes"/>
      <point x="167" y="85"/>
      <point x="226" y="85" type="qcurve" smooth="yes"/>
      <point x="409" y="85" type="line"/>
      <point x="409" y="437" type="line"/>
      <point x="226" y="437" type="line" smooth="yes"/>
      <point x="167" y="437"/>
      <point x="167" y="379" type="qcurve" smooth="yes"/>
    </contour>
  </outline>
</glyph>
<glyph name="g" format="2">
  <advance width="582"/>
  <unicode hex="0067"/>
  <outline>
    <contour>
      <point x="68" y="154" type="qcurve" smooth="yes"/>
      <point x="68" y="369" type="line" smooth="yes"/>
      <point x="68" y="522"/>
      <point x="222" y="522" type="qcurve" smooth="yes"/>
      <point x="506" y="522" type="line"/>
      <point x="506" y="-46" type="line" smooth="yes"/>
      <point x="506" y="-200"/>
      <point x="352" y="-200" type="qcurve" smooth="yes"/>
      <point x="156" y="-200" type="line"/>
      <point x="110" y="-166" type="line"/>
      <point x="110" y="-115" type="line"/>
      <point x="350" y="-115" type="line" smooth="yes"/>
      <point x="408" y="-115"/>
      <point x="408" y="-56" type="qcurve" smooth="yes"/>
      <point x="408" y="0" type="line"/>
      <point x="222" y="0" type="line" smooth="yes"/>
      <point x="68" y="0"/>
    </contour>
    <contour>
      <point x="166" y="144" type="line" smooth="yes"/>
      <point x="166" y="85"/>
      <point x="224" y="85" type="qcurve" smooth="yes"/>
      <point x="408" y="85" type="line"/>
      <point x="408" y="437" type="line"/>
      <point x="224" y="437" type="line" smooth="yes"/>
      <point x="166" y="437"/>
      <point x="166" y="379" type="qcurve" smooth="yes"/>
    </contour>
  </outline>
</glyph>
<glyph name="m" format="2">
  <advance width="898"/>
  <unicode hex="006D"/>
  <outline>
    <contour>
      <point x="78" y="0" type="line"/>
      <point x="78" y="522" type="line"/>
      <point x="671" y="522" type="line" smooth="yes"/>
      <point x="825" y="522"/>
      <point x="825" y="369" type="qcurve" smooth="yes"/>
      <point x="825" y="0" type="line"/>
      <point x="727" y="0" type="line"/>
      <point x="727" y="379" type="line" smooth="yes"/>
      <point x="727" y="437"/>
      <point x="669" y="437" type="qcurve" smooth="yes"/>
      <point x="500" y="437" type="line"/>
      <point x="500" y="0" type="line"/>
      <point x="402" y="0" type="line"/>
      <point x="402" y="437" type="line"/>
      <point x="175" y="437" type="line"/>
      <point x="175" y="0" type="line"/>
    </contour>
  </outline>
</glyph>
<glyph name="n" format="2">
  <advance width="588"/>
  <unicode hex="006E"/>
  <outline>
    <contour>
      <point x="78" y="0" type="line"/>
      <point x="78" y="522" type="line"/>
      <point x="361" y="522" type="line" smooth="yes"/>
      <point x="515" y="522"/>
      <point x="515" y="369" type="qcurve" smooth="yes"/>
      <point x="515" y="0" type="line"/>
      <point x="417" y="0" type="line"/>
      <point x="417" y="379" type="line" smooth="yes"/>
      <point x="417" y="437"/>
      <point x="359" y="437" type="qcurve" smooth="yes"/>
      <point x="175" y="437" type="line"/>
      <point x="175" y="0" type="line"/>
    </contour>
  </outline>
</glyph>
<glyph name="o" format="2">
  <advance width="586"/>
  <unicode hex="006F"/>
  <outline>
    <contour>
      <point x="70" y="154" type="qcurve" smooth="yes"/>
      <point x="70" y="369" type="line" smooth="yes"/>
      <point x="70" y="522"/>
      <point x="223" y="522" type="qcurve" smooth="yes"/>
      <point x="363" y="522" type="line" smooth="yes"/>
      <point x="517" y="522"/>
      <point x="517" y="369" type="qcurve" smooth="yes"/>
      <point x="517" y="154" type="line" smooth="yes"/>
      <point x="517" y="0"/>
      <point x="363" y="0" type="qcurve" smooth="yes"/>
      <point x="223" y="0" type="line" smooth="yes"/>
      <point x="70" y="0"/>
    </contour>
    <contour>
      <point x="167" y="144" type="line" smooth="yes"/>
      <point x="167" y="85"/>
      <point x="226" y="85" type="qcurve" smooth="yes"/>
      <point x="361" y="85" type="line" smooth="yes"/>
      <point x="419" y="85"/>
      <point x="419" y="144" type="qcurve" smooth="yes"/>
      <point x="419" y="379" type="line" smooth="yes"/>
      <point x="419" y="437"/>
      <point x="361" y="437" type="qcurve" smooth="yes"/>
      <point x="226" y="437" type="line" smooth="yes"/>
      <point x="167" y="437"/>
      <point x="167" y="379" type="qcurve" smooth="yes"/>
    </contour>
  </outline>
</glyph>
<glyph name="t" format="2">
  <advance width="402"/>
  <unicode hex="0074"/>
  <outline>
    <contour>
      <point x="74" y="154" type="qcurve" smooth="yes"/>
      <point x="74" y="690" type="line"/>
      <point x="171" y="690" type="line"/>
      <point x="171" y="522" type="line"/>
      <point x="356" y="522" type="line"/>
      <point x="356" y="437" type="line"/>
      <point x="171" y="437" type="line"/>
      <point x="171" y="144" type="line" smooth="yes"/>
      <point x="171" y="85"/>
      <point x="230" y="85" type="qcurve" smooth="yes"/>
      <point x="366" y="85" type="line"/>
      <point x="366" y="34" type="line"/>
      <point x="320" y="0" type="line"/>
      <point x="227" y="0" type="line" smooth="yes"/>
      <point x="74" y="0"/>
    </contour>
  </outline>
</glyph>
<glyph name="z" format="2">
  <advance width="512"/>
  <unicode hex="007A"/>
  <outline>
    <contour>
      <point x="48" y="0" type="line"/>
      <point x="48" y="75" type="line"/>
      <point x="331" y="437" type="line"/>
      <point x="58" y="437" type="line"/>
      <point x="58" y="522" type="line"/>
      <point x="455" y="522" type="line"/>
      <point x="455" y="448" type="line"/>
      <point x="172" y="85" type="line"/>
      <point x="465" y="85" type="line"/>
      <point x="465" y="0" type="line"/>
    </contour>
  </outline>
</glyph>
<glyph name="braceleft" format="2">
  <advance width="392"/>
  <unicode hex="007B"/>
  <outline>
    <contour>
      <point x="50" y="264" type="line"/>
      <point x="50" y="313" type="line"/>
      <point x="137" y="400" type="line"/>
      <point x="137" y="606" type="line" smooth="yes"/>
      <point x="137" y="760"/>
      <point x="291" y="760" type="qcurve" smooth="yes"/>
      <point x="362" y="760" type="line"/>
      <point x="362" y="675" type="line"/>
      <point x="293" y="675" type="line" smooth="yes"/>
      <point x="234" y="675"/>
      <point x="234" y="616" type="qcurve" smooth="yes"/>
      <point x="234" y="376" type="line"/>
      <point x="147" y="288" type="line"/>
      <point x="234" y="201" type="line"/>
      <point x="234" y="-36" type="line" smooth="yes"/>
      <point x="234" y="-95"/>
      <point x="293" y="-95" type="qcurve" smooth="yes"/>
      <point x="362" y="-95" type="line"/>
      <point x="362" y="-180" type="line"/>
      <point x="291" y="-180" type="line" smooth="yes"/>
      <point x="137" y="-180"/>
      <point x="137" y="-26" type="qcurve" smooth="yes"/>
      <point x="137" y="177" type="line"/>
    </contour>
  </outline>
</glyph>
<glyph name="exclamdown" format="2">
  <advance width="265"/>
  <unicode hex="00A1"/>
  <outline>
    <contour>
      <point x="75" y="402" type="line"/>
      <point x="75" y="522" type="line"/>
      <point x="190" y="522" type="line"/>
      <point x="190" y="402" type="line"/>
    </contour>
    <contour>
      <point x="82" y="-168" type="line"/>
      <point x="82" y="309" type="line"/>
      <point x="184" y="309" type="line"/>
      <point x="184" y="-168" type="line"/>
    </contour>
  </outline>
</glyph>
<glyph name="cent" format="2">
  <advance width="578"/>
  <unicode hex="00A2"/>
  <outline>
    <contour>
      <point x="90" y="154" type="qcurve" smooth="yes"/>
      <point x="90" y="369" type="line" smooth="yes"/>
      <point x="90" y="522"/>
      <point x="244" y="522" type="qcurve" smooth="yes"/>
      <point x="276" y="522" type="line"/>
      <point x="276" y="632" type="line"/>
      <point x="356" y="632" type="line"/>
      <point x="356" y="522" type="line"/>
      <point x="437" y="522" type="line"/>
      <point x="483" y="488" type="line"/>
      <point x="483" y="437" type="line"/>
      <point x="246" y="437" type="line" smooth="yes"/>
      <point x="188" y="437"/>
      <point x="188" y="379" type="qcurve" smooth="yes"/>
      <point x="188" y="144" type="line" smooth="yes"/>
      <point x="188" y="85"/>
      <point x="246" y="85" type="qcurve" smooth="yes"/>
      <point x="483" y="85" type="line"/>
      <point x="483" y="34" type="line"/>
      <point x="437" y="0" type="line"/>
      <point x="356" y="0" type="line"/>
      <point x="356" y="-110" type="line"/>
      <point x="276" y="-110" type="line"/>
      <point x="276" y="0" type="line"/>
      <point x="244" y="0" type="line" smooth="yes"/>
      <point x="90" y="0"/>
    </contour>
  </outline>
</glyph>
<glyph name="copyright" format="2">
  <advance width="841"/>
  <unicode hex="00A9"/>
  <outline>
    <contour>
      <point x="78" y="103" type="qcurve" smooth="yes"/>
      <point x="78" y="587" type="line" smooth="yes"/>
      <point x="78" y="690"/>
      <point x="181" y="690" type="qcurve" smooth="yes"/>
      <point x="660" y="690" type="line" smooth="yes"/>
      <point x="764" y="690"/>
      <point x="764" y="587" type="qcurve" smooth="yes"/>
      <point x="764" y="103" type="line" smooth="yes"/>
      <point x="764" y="0"/>
      <point x="660" y="0" type="qcurve" smooth="yes"/>
      <point x="181" y="0" type="line" smooth="yes"/>
      <point x="78" y="0"/>
    </contour>
    <contour>
      <point x="150" y="92" type="line" smooth="yes"/>
      <point x="150" y="65"/>
      <point x="177" y="65" type="qcurve" smooth="yes"/>
      <point x="664" y="65" type="line" smooth="yes"/>
      <point x="691" y="65"/>
      <point x="691" y="92" type="qcurve" smooth="yes"/>
      <point x="691" y="598" type="line" smooth="yes"/>
      <point x="691" y="625"/>
      <point x="664" y="625" type="qcurve" smooth="yes"/>
      <point x="177" y="625" type="line" smooth="yes"/>
      <point x="150" y="625"/>
      <point x="150" y="598" type="qcurve" smooth="yes"/>
    </contour>
    <contour>
      <point x="259" y="259" type="qcurve" smooth="yes"/>
      <point x="259" y="431" type="line" smooth="yes"/>
      <point x="259" y="538"/>
      <point x="366" y="538" type="qcurve" smooth="yes"/>
      <point x="516" y="538" type="line"/>
      <point x="552" y="509" type="line"/>
      <point x="552" y="468" type="line"/>
      <point x="362" y="468" type="line" smooth="yes"/>
      <point x="336" y="468"/>
      <point x="336" y="442" type="qcurve" smooth="yes"/>
      <point x="336" y="248" type="line" smooth="yes"/>
      <point x="336" y="222"/>
      <point x="362" y="222" type="qcurve" smooth="yes"/>
      <point x="552" y="222" type="line"/>
      <point x="552" y="181" type="line"/>
      <point x="516" y="152" type="line"/>
      <point x="366" y="152" type="line" smooth="yes"/>
      <point x="259" y="152"/>
    </contour>
  </outline>
</glyph>
<glyph name="plusminus" format="2">
  <advance width="578"/>
  <unicode hex="00B1"/>
  <outline>
    <contour>
      <point x="63" y="0" type="line"/>
      <point x="63" y="84" type="line"/>
      <point x="515" y="84" type="line"/>
      <point x="515" y="0" type="line"/>
    </contour>
    <contour>
      <point x="63" y="319" type="line"/>
      <point x="63" y="403" type="line"/>
      <point x="244" y="403" type="line"/>
      <point x="244" y="585" type="line"/>
      <point x="334" y="585" type="line"/>
      <point x="334" y="403" type="line"/>
      <point x="515" y="403" type="line"/>
      <point x="515" y="319" type="line"/>
      <point x="334" y="319" type="line"/>
      <point x="334" y="137" type="line"/>
      <point x="244" y="137" type="line"/>
      <point x="244" y="319" type="line"/>
    </contour>
  </outline>
</glyph>
<glyph name="uni00B3" format="2">
  <advance width="362"/>
  <unicode hex="00B3"/>
  <outline>
    <contour>
      <point x="44" y="307" type="line"/>
      <point x="44" y="348" type="line"/>
      <point x="220" y="348" type="line" smooth="yes"/>
      <point x="246" y="348"/>
      <point x="246" y="374" type="qcurve" smooth="yes"/>
      <point x="246" y="428" type="line" smooth="yes"/>
      <point x="246" y="454"/>
      <point x="220" y="454" type="qcurve" smooth="yes"/>
      <point x="88" y="454" type="line"/>
      <point x="88" y="524" type="line"/>
      <point x="220" y="524" type="line" smooth="yes"/>
      <point x="246" y="524"/>
      <point x="246" y="550" type="qcurve" smooth="yes"/>
      <point x="246" y="594" type="line" smooth="yes"/>
      <point x="246" y="620"/>
      <point x="220" y="620" type="qcurve" smooth="yes"/>
      <point x="50" y="620" type="line"/>
      <point x="50" y="661" type="line"/>
      <point x="87" y="690" type="line"/>
      <point x="217" y="690" type="line" smooth="yes"/>
      <point x="324" y="690"/>
      <point x="324" y="583" type="qcurve" smooth="yes"/>
      <point x="324" y="558" type="line" smooth="yes"/>
      <point x="324" y="531"/>
      <point x="307" y="514" type="qcurve" smooth="yes"/>
      <point x="284" y="491" type="line"/>
      <point x="307" y="468" type="line" smooth="yes"/>
      <point x="324" y="451"/>
      <point x="324" y="424" type="qcurve" smooth="yes"/>
      <point x="324" y="385" type="line" smooth="yes"/>
      <point x="324" y="278"/>
      <point x="217" y="278" type="qcurve" smooth="yes"/>
      <point x="81" y="278" type="line"/>
    </contour>
  </outline>
</glyph>
<glyph name="mu" format="2">
  <advance width="588"/>
  <unicode hex="00B5"/>
  <outline>
    <contour>
      <point x="78" y="-200" type="line"/>
      <point x="78" y="522" type="line"/>
      <point x="175" y="522" type="line"/>
      <point x="175" y="85" type="line"/>
      <point x="359" y="85" type="line" smooth="yes"/>
      <point x="417" y="85"/>
      <point x="417" y="144" type="qcurve" smooth="yes"/>
      <point x="417" y="522" type="line"/>
      <point x="515" y="522" type="line"/>
      <point x="515" y="154" type="line" smooth="yes"/>
      <point x="515" y="0"/>
      <point x="361" y="0" type="qcurve" smooth="yes"/>
      <point x="175" y="0" type="line"/>
      <point x="175" y="-200" type="line"/>
    </contour>
  </outline>
</glyph>
<glyph name="uni00B9" format="2">
  <advance width="362"/>
  <unicode hex="00B9"/>
  <outline>
    <contour>
      <point x="56" y="278" type="line"/>
      <point x="56" y="348" type="line"/>
      <point x="153" y="348" type="line"/>
      <point x="153" y="620" type="line"/>
      <point x="75" y="620" type="line"/>
      <point x="75" y="661" type="line"/>
      <point x="112" y="690" type="line"/>
      <point x="230" y="690" type="line"/>
      <point x="230" y="348" type="line"/>
      <point x="318" y="348" type="line"/>
      <point x="318" y="278" type="line"/>
    </contour>
  </outline>
</glyph>
<glyph name="ordmasculine" format="2">
  <advance width="431"/>
  <unicode hex="00BA"/>
  <outline>
    <contour>
      <point x="48" y="405" type="qcurve" smooth="yes"/>
      <point x="48" y="583" type="line" smooth="yes"/>
      <point x="48" y="690"/>
      <point x="155" y="690" type="qcurve" smooth="yes"/>
      <point x="276" y="690" type="line" smooth="yes"/>
      <point x="383" y="690"/>
      <point x="383" y="583" type="qcurve" smooth="yes"/>
      <point x="383" y="405" type="line" smooth="yes"/>
      <point x="383" y="299"/>
      <point x="276" y="299" type="qcurve" smooth="yes"/>
      <point x="155" y="299" type="line" smooth="yes"/>
      <point x="48" y="299"/>
    </contour>
    <contour>
      <point x="125" y="395" type="line" smooth="yes"/>
      <point x="125" y="369"/>
      <point x="151" y="369" type="qcurve" smooth="yes"/>
      <point x="280" y="369" type="line" smooth="yes"/>
      <point x="306" y="369"/>
      <point x="306" y="395" type="qcurve" smooth="yes"/>
      <point x="306" y="594" type="line" smooth="yes"/>
      <point x="306" y="620"/>
      <point x="280" y="620" type="qcurve" smooth="yes"/>
      <point x="151" y="620" type="line" smooth="yes"/>
      <point x="125" y="620"/>
      <point x="125" y="594" type="qcurve" smooth="yes"/>
    </contour>
  </outline>
</glyph>
<glyph name="questiondown" format="2">
  <advance width="487"/>
  <unicode hex="00BF"/>
  <outline>
    <contour>
      <point x="50" y="-10" type="qcurve" smooth="yes"/>
      <point x="50" y="78" type="line" smooth="yes"/>
      <point x="50" y="236"/>
      <point x="208" y="236" type="qcurve" smooth="yes"/>
      <point x="240" y="236" type="line"/>
      <point x="240" y="309" type="line"/>
      <point x="343" y="309" type="line"/>
      <point x="343" y="143" type="line"/>
      <point x="209" y="143" type="line" smooth="yes"/>
      <point x="152" y="143"/>
      <point x="152" y="87" type="qcurve" smooth="yes"/>
      <point x="152" y="-19" type="line" smooth="yes"/>
      <point x="152" y="-75"/>
      <point x="209" y="-75" type="qcurve" smooth="yes"/>
      <point x="467" y="-75" type="line"/>
      <point x="467" y="-128" type="line"/>
      <point x="416" y="-168" type="line"/>
      <point x="208" y="-168" type="line" smooth="yes"/>
      <point x="50" y="-168"/>
    </contour>
    <contour>
      <point x="234" y="402" type="line"/>
      <point x="234" y="522" type="line"/>
      <point x="349" y="522" type="line"/>
      <point x="349" y="402" type="line"/>
    </contour>
  </outline>
</glyph>
<glyph name="AE" format="2">
  <advance width="901"/>
  <unicode hex="00C6"/>
  <outline>
    <contour>
      <point x="19" y="21" type="line"/>
      <point x="239" y="690" type="line"/>
      <point x="851" y="690" type="line"/>
      <point x="851" y="598" type="line"/>
      <point x="521" y="598" type="line"/>
      <point x="521" y="406" type="line"/>
      <point x="821" y="406" type="line"/>
      <point x="821" y="314" type="line"/>
      <point x="521" y="314" type="line"/>
      <point x="521" y="92" type="line"/>
      <point x="851" y="92" type="line"/>
      <point x="851" y="0" type="line"/>
      <point x="419" y="0" type="line"/>
      <point x="419" y="164" type="line"/>
      <point x="170" y="164" type="line"/>
      <point x="118" y="0" type="line"/>
      <point x="33" y="0" type="line"/>
    </contour>
    <contour>
      <point x="199" y="256" type="line"/>
      <point x="419" y="256" type="line"/>
      <point x="419" y="598" type="line"/>
      <point x="310" y="598" type="line"/>
    </contour>
  </outline>
</glyph>
<glyph name="Eth" format="2">
  <advance width="694"/>
  <unicode hex="00D0"/>
  <outline>
    <contour>
      <point x="20" y="305" type="line"/>
      <point x="20" y="385" type="line"/>
      <point x="99" y="385" type="line"/>
      <point x="99" y="690" type="line"/>
      <point x="394" y="690" type="line" smooth="yes"/>
      <point x="627" y="690"/>
      <point x="627" y="457" type="qcurve" smooth="yes"/>
      <point x="627" y="233" type="line" smooth="yes"/>
      <point x="627" y="0"/>
      <point x="394" y="0" type="qcurve" smooth="yes"/>
      <point x="99" y="0" type="line"/>
      <point x="99" y="305" type="line"/>
    </contour>
    <contour>
      <point x="201" y="92" type="line"/>
      <point x="394" y="92" type="line" smooth="yes"/>
      <point x="525" y="92"/>
      <point x="525" y="223" type="qcurve" smooth="yes"/>
      <point x="525" y="467" type="line" smooth="yes"/>
      <point x="525" y="598"/>
      <point x="394" y="598" type="qcurve" smooth="yes"/>
      <point x="201" y="598" type="line"/>
      <point x="201" y="385" type="line"/>
      <point x="363" y="385" type="line"/>
      <point x="363" y="305" type="line"/>
      <point x="201" y="305" type="line"/>
    </contour>
  </outline>
</glyph>
<glyph name="multiply" format="2">
  <advance width="578"/>
  <unicode hex="00D7"/>
  <outline>
    <contour>
      <point x="79" y="185" type="line"/>
      <point x="229" y="335" type="line"/>
      <point x="79" y="485" type="line"/>
      <point x="139" y="545" type="line"/>
      <point x="289" y="395" type="line"/>
      <point x="439" y="545" type="line"/>
      <point x="499" y="485" type="line"/>
      <point x="349" y="335" type="line"/>
      <point x="499" y="185" type="line"/>
      <point x="439" y="125" type="line"/>
      <point x="289" y="275" type="line"/>
      <point x="139" y="125" type="line"/>
    </contour>
  </outline>
</glyph>
<glyph name="Thorn" format="2">
  <advance width="632"/>
  <unicode hex="00DE"/>
  <outline>
    <contour>
      <point x="88" y="0" type="line"/>
      <point x="88" y="690" type="line"/>
      <point x="190" y="690" type="line"/>
      <point x="190" y="576" type="line"/>
      <point x="417" y="576" type="line" smooth="yes"/>
      <point x="575" y="576"/>
      <point x="575" y="418" type="qcurve" smooth="yes"/>
      <point x="575" y="286" type="line" smooth="yes"/>
      <point x="575" y="128"/>
      <point x="417" y="128" type="qcurve" smooth="yes"/>
      <point x="190" y="128" type="line"/>
      <point x="190" y="0" type="line"/>
    </contour>
    <contour>
      <point x="190" y="220" type="line"/>
      <point x="416" y="220" type="line" smooth="yes"/>
      <point x="473" y="220"/>
      <point x="473" y="277" type="qcurve" smooth="yes"/>
      <point x="473" y="427" type="line" smooth="yes"/>
      <point x="473" y="484"/>
      <point x="416" y="484" type="qcurve" smooth="yes"/>
      <point x="190" y="484" type="line"/>
    </contour>
  </outline>
</glyph>
<glyph name="ae" format="2">
  <advance width="870"/>
  <unicode hex="00E6"/>
  <outline>
    <contour>
      <point x="204" y="0" type="line" smooth="yes"/>
      <point x="50" y="0"/>
      <point x="50" y="308"/>
      <point x="204" y="308" type="qcurve" smooth="yes"/>
      <point x="371" y="308" type="line"/>
      <point x="371" y="379" type="line" smooth="yes"/>
      <point x="371" y="437"/>
      <point x="312" y="437" type="qcurve" smooth="yes"/>
      <point x="101" y="437" type="line"/>
      <point x="101" y="488" type="line"/>
      <point x="147" y="522" type="line"/>
      <point x="309" y="522" type="line" smooth="yes"/>
      <point x="379" y="522"/>
      <point x="419" y="482" type="qcurve"/>
      <point x="459" y="522"/>
      <point x="530" y="522" type="qcurve" smooth="yes"/>
      <point x="647" y="522" type="line" smooth="yes"/>
      <point x="801" y="522"/>
      <point x="801" y="369" type="qcurve" smooth="yes"/>
      <point x="801" y="221" type="line"/>
      <point x="468" y="221" type="line"/>
      <point x="468" y="144" type="line" smooth="yes"/>
      <point x="468" y="85"/>
      <point x="527" y="85" type="qcurve" smooth="yes"/>
      <point x="781" y="85" type="line"/>
      <point x="781" y="34" type="line"/>
      <point x="735" y="0" type="line"/>
      <point x="530" y="0" type="line" smooth="yes"/>
      <point x="459" y="0"/>
      <point x="419" y="40" type="qcurve"/>
      <point x="379" y="0"/>
      <point x="309" y="0" type="qcurve" smooth="yes"/>
    </contour>
    <contour>
      <point x="147" y="144" type="line" smooth="yes"/>
      <point x="147" y="85"/>
      <point x="206" y="85" type="qcurve" smooth="yes"/>
      <point x="312" y="85" type="line" smooth="yes"/>
      <point x="371" y="85"/>
      <point x="371" y="144" type="qcurve" smooth="yes"/>
      <point x="371" y="226" type="line"/>
      <point x="206" y="226" type="line" smooth="yes"/>
      <point x="147" y="226"/>
      <point x="147" y="168" type="qcurve" smooth="yes"/>
    </contour>
    <contour>
      <point x="468" y="303" type="line"/>
      <point x="703" y="303" type="line"/>
      <point x="703" y="379" type="line" smooth="yes"/>
      <point x="703" y="437"/>
      <point x="645" y="437" type="qcurve" smooth="yes"/>
      <point x="527" y="437" type="line" smooth="yes"/>
      <point x="468" y="437"/>
      <point x="468" y="379" type="qcurve" smooth="yes"/>
    </contour>
  </outline>
</glyph>
<glyph name="eth" format="2">
  <advance width="586"/>
  <unicode hex="00F0"/>
  <outline>
    <contour>
      <point x="70" y="154" type="qcurve" smooth="yes"/>
      <point x="70" y="296" type="line" smooth="yes"/>
      <point x="70" y="450"/>
      <point x="223" y="450" type="qcurve" smooth="yes"/>
      <point x="394" y="450" type="line"/>
      <point x="321" y="564" type="line"/>
      <point x="212" y="512" type="line"/>
      <point x="181" y="579" type="line"/>
      <point x="281" y="628" type="line"/>
      <point x="232" y="704" type="line"/>
      <point x="310" y="754" type="line"/>
      <point x="365" y="668" type="line"/>
      <point x="465" y="715" type="line"/>
      <point x="497" y="647" type="line"/>
      <point x="405" y="604" type="line"/>
      <point x="481" y="482" type="line" smooth="yes"/>
      <point x="517" y="426"/>
      <point x="517" y="370" type="qcurve" smooth="yes"/>
      <point x="517" y="154" type="line" smooth="yes"/>
      <point x="517" y="0"/>
      <point x="363" y="0" type="qcurve" smooth="yes"/>
      <point x="223" y="0" type="line" smooth="yes"/>
      <point x="70" y="0"/>
    </contour>
    <contour>
      <point x="167" y="144" type="line" smooth="yes"/>
      <point x="167" y="85"/>
      <point x="226" y="85" type="qcurve" smooth="yes"/>
      <point x="361" y="85" type="line" smooth="yes"/>
      <point x="419" y="85"/>
      <point x="419" y="144" type="qcurve" smooth="yes"/>
      <point x="419" y="365" type="line"/>
      <point x="226" y="365" type="line" smooth="yes"/>
      <point x="167" y="365"/>
      <point x="167" y="306" type="qcurve" smooth="yes"/>
    </contour>
  </outline>
</glyph>
<glyph name="dotlessi" format="2">
  <advance width="253"/>
  <unicode hex="0131"/>
  <outline>
    <contour>
      <point x="78" y="0" type="line"/>
      <point x="78" y="522" type="line"/>
      <point x="175" y="522" type="line"/>
      <point x="175" y="0" type="line"/>
    </contour>
  </outline>
</glyph>
<glyph name="florin" format="2">
  <advance width="572"/>
  <unicode hex="0192"/>
  <outline>
    <contour>
      <point x="40" y="-62" type="line"/>
      <point x="129" y="-62" type="line" smooth="yes"/>
      <point x="188" y="-62"/>
      <point x="188" y="-3" type="qcurve" smooth="yes"/>
      <point x="188" y="586" type="line" smooth="yes"/>
      <point x="188" y="740"/>
      <point x="341" y="740" type="qcurve" smooth="yes"/>
      <point x="434" y="740" type="line"/>
      <point x="480" y="706" type="line"/>
      <point x="480" y="655" type="line"/>
      <point x="344" y="655" type="line" smooth="yes"/>
      <point x="285" y="655"/>
      <point x="285" y="596" type="qcurve" smooth="yes"/>
      <point x="285" y="522" type="line"/>
      <point x="470" y="522" type="line"/>
      <point x="470" y="437" type="line"/>
      <point x="285" y="437" type="line"/>
      <point x="285" y="7" type="line" smooth="yes"/>
      <point x="285" y="-147"/>
      <point x="131" y="-147" type="qcurve" smooth="yes"/>
      <point x="86" y="-147" type="line"/>
      <point x="40" y="-112" type="line"/>
    </contour>
  </outline>
</glyph>
<glyph name="uni0237" format="2">
  <advance width="253"/>
  <unicode hex="0237"/>
  <outline>
    <contour>
      <point x="-9" y="-124" type="line"/>
      <point x="78" y="-120"/>
      <point x="78" y="-36" type="qcurve" smooth="yes"/>
      <point x="78" y="522" type="line"/>
      <point x="175" y="522" type="line"/>
      <point x="175" y="-25" type="line" smooth="yes"/>
      <point x="175" y="-209"/>
      <point x="-9" y="-209" type="qcurve"/>
    </contour>
  </outline>
</glyph>
<glyph name="uni0300" format="2">
  <advance width="0"/>
  <unicode hex="0300"/>
  <outline>
    <contour>
      <point x="-408" y="714" type="line"/>
      <point x="-349" y="769" type="line"/>
      <point x="-218" y="621" type="line"/>
      <point x="-268" y="573" type="line"/>
    </contour>
  </outline>
</glyph>
<glyph name="uni0302" format="2">
  <advance width="0"/>
  <unicode hex="0302"/>
  <outline>
    <contour>
      <point x="-431" y="629" type="line"/>
      <point x="-287" y="769" type="line"/>
      <point x="-144" y="629" type="line"/>
      <point x="-188" y="581" type="line"/>
      <point x="-287" y="675" type="line"/>
      <point x="-386" y="581" type="line"/>
    </contour>
  </outline>
</glyph>
<glyph name="uni0303" format="2">
  <advance width="0"/>
  <unicode hex="0303"/>
  <outline>
    <contour>
      <point x="-450" y="642" type="line"/>
      <point x="-391" y="701" type="line" smooth="yes"/>
      <point x="-370" y="722"/>
      <point x="-308" y="722"/>
      <point x="-287" y="701" type="qcurve" smooth="yes"/>
      <point x="-250" y="664" type="line" smooth="yes"/>
      <point x="-243" y="657"/>
      <point x="-229" y="657"/>
      <point x="-222" y="664" type="qcurve" smooth="yes"/>
      <point x="-170" y="716" type="line"/>
      <point x="-125" y="671" type="line"/>
      <point x="-184" y="612" type="line" smooth="yes"/>
      <point x="-205" y="591"/>
      <point x="-267" y="591"/>
      <point x="-288" y="612" type="qcurve" smooth="yes"/>
      <point x="-325" y="649" type="line" smooth="yes"/>
      <point x="-332" y="656"/>
      <point x="-346" y="656"/>
      <point x="-353" y="649" type="qcurve" smooth="yes"/>
      <point x="-405" y="597" type="line"/>
    </contour>
  </outline>
</glyph>
<glyph name="uni0304" format="2">
  <advance width="0"/>
  <unicode hex="0304"/>
  <outline>
    <contour>
      <point x="-422" y="623" type="line"/>
      <point x="-422" y="696" type="line"/>
      <point x="-152" y="696" type="line"/>
      <point x="-152" y="623" type="line"/>
    </contour>
  </outline>
</glyph>
<glyph name="uni0307" format="2">
  <advance width="0"/>
  <unicode hex="0307"/>
  <outline>
    <contour>
      <point x="-338" y="614" type="line"/>
      <point x="-338" y="719" type="line"/>
      <point x="-236" y="719" type="line"/>
      <point x="-236" y="614" type="line"/>
    </contour>
  </outline>
</glyph>
<glyph name="uni030B" format="2">
  <advance width="0"/>
  <unicode hex="030B"/>
  <outline>
    <contour>
      <point x="-426" y="616" type="line"/>
      <point x="-313" y="769" type="line"/>
      <point x="-251" y="720" type="line"/>
      <point x="-374" y="573" type="line"/>
    </contour>
    <contour>
      <point x="-255" y="616" type="line"/>
      <point x="-142" y="769" type="line"/>
      <point x="-80" y="720" type="line"/>
      <point x="-203" y="573" type="line"/>
    </contour>
  </outline>
</glyph>
<glyph name="uni0326" format="2">
  <advance width="0"/>
  <unicode hex="0326"/>
  <outline>
    <contour>
      <point x="-363" y="-182" type="line"/>
      <point x="-331" y="-50" type="line"/>
      <point x="-250" y="-50" type="line"/>
      <point x="-240" y="-66" type="line"/>
      <point x="-296" y="-202" type="line"/>
    </contour>
  </outline>
</glyph>
<glyph name="uni0327" format="2">
  <advance width="0"/>
  <unicode hex="0327"/>
  <outline>
    <contour>
      <point x="-398" y="-112" type="line"/>
      <point x="-297" y="-112" type="line" smooth="yes"/>
      <point x="-271" y="-112"/>
      <point x="-271" y="-86" type="qcurve" smooth="yes"/>
      <point x="-271" y="42" type="line"/>
      <point x="-195" y="42" type="line"/>
      <point x="-195" y="-75" type="line" smooth="yes"/>
      <point x="-195" y="-182"/>
      <point x="-302" y="-182" type="qcurve" smooth="yes"/>
      <point x="-361" y="-182" type="line"/>
      <point x="-398" y="-153" type="line"/>
    </contour>
  </outline>
</glyph>
<glyph name="uni0328" format="2">
  <advance width="0"/>
  <unicode hex="0328"/>
  <outline>
    <contour>
      <point x="-368" y="-38" type="line" smooth="yes"/>
      <point x="-368" y="69"/>
      <point x="-261" y="69" type="qcurve" smooth="yes"/>
      <point x="-238" y="69" type="line"/>
      <point x="-238" y="0" type="line"/>
      <point x="-265" y="0" type="line" smooth="yes"/>
      <point x="-291" y="0"/>
      <point x="-291" y="-26" type="qcurve" smooth="yes"/>
      <point x="-291" y="-86" type="line" smooth="yes"/>
      <point x="-291" y="-112"/>
      <point x="-265" y="-112" type="qcurve" smooth="yes"/>
      <point x="-169" y="-112" type="line"/>
      <point x="-169" y="-153" type="line"/>
      <point x="-205" y="-182" type="line"/>
      <point x="-261" y="-182" type="line" smooth="yes"/>
      <point x="-368" y="-182"/>
      <point x="-368" y="-75" type="qcurve" smooth="yes"/>
    </contour>
  </outline>
</glyph>
<glyph name="pi" format="2">
  <advance width="592"/>
  <unicode hex="03C0"/>
  <outline>
    <contour>
      <point x="78" y="0" type="line"/>
      <point x="78" y="522" type="line"/>
      <point x="515" y="522" type="line"/>
      <point x="515" y="0" type="line"/>
      <point x="417" y="0" type="line"/>
      <point x="417" y="437" type="line"/>
      <point x="175" y="437" type="line"/>
      <point x="175" y="0" type="line"/>
    </contour>
  </outline>
</glyph>
<glyph name="quoteleft" format="2">
  <advance width="265"/>
  <unicode hex="2018"/>
  <outline>
    <contour>
      <point x="53" y="506" type="line"/>
      <point x="147" y="753" type="line"/>
      <point x="220" y="735" type="line"/>
      <point x="158" y="490" type="line"/>
      <point x="63" y="490" type="line"/>
    </contour>
  </outline>
</glyph>
<glyph name="quoteright" format="2">
  <advance width="265"/>
  <unicode hex="2019"/>
  <outline>
    <contour>
      <point x="49" y="495" type="line"/>
      <point x="111" y="740" type="line"/>
      <point x="205" y="740" type="line"/>
      <point x="216" y="724" type="line"/>
      <point x="121" y="477" type="line"/>
    </contour>
  </outline>
</glyph>
<glyph name="quotesinglbase" format="2">
  <advance width="265"/>
  <unicode hex="201A"/>
  <outline>
    <contour>
      <point x="29" y="-125" type="line"/>
      <point x="91" y="120" type="line"/>
      <point x="185" y="120" type="line"/>
      <point x="196" y="104" type="line"/>
      <point x="102" y="-143" type="line"/>
    </contour>
  </outline>
</glyph>
<glyph name="dagger" format="2">
  <advance width="492"/>
  <unicode hex="2020"/>
  <outline>
    <contour>
      <point x="50" y="413" type="line"/>
      <point x="50" y="497" type="line"/>
      <point x="202" y="497" type="line"/>
      <point x="202" y="690" type="line"/>
      <point x="291" y="690" type="line"/>
      <point x="291" y="497" type="line"/>
      <point x="442" y="497" type="line"/>
      <point x="442" y="413" type="line"/>
      <point x="291" y="413" type="line"/>
      <point x="291" y="-100" type="line"/>
      <point x="202" y="-100" type="line"/>
      <point x="202" y="413" type="line"/>
    </contour>
  </outline>
</glyph>
<glyph name="bullet" format="2">
  <advance width="362"/>
  <unicode hex="2022"/>
  <outline>
    <contour>
      <point x="75" y="254" type="line"/>
      <point x="75" y="466" type="line"/>
      <point x="287" y="466" type="line"/>
      <point x="287" y="254" type="line"/>
    </contour>
  </outline>
</glyph>
<glyph name="guilsinglleft" format="2">
  <advance width="314"/>
  <unicode hex="2039"/>
  <outline>
    <contour>
      <point x="30" y="315" type="line"/>
      <point x="212" y="544" type="line"/>
      <point x="274" y="494" type="line"/>
      <point x="136" y="315" type="line"/>
      <point x="274" y="136" type="line"/>
      <point x="212" y="86" type="line"/>
    </contour>
  </outline>
</glyph>
<glyph name="guilsinglright" format="2">
  <advance width="314"/>
  <unicode hex="203A"/>
  <outline>
    <contour>
      <point x="40" y="136" type="line"/>
      <point x="178" y="315" type="line"/>
      <point x="40" y="494" type="line"/>
      <point x="101" y="544" type="line"/>
      <point x="284" y="315" type="line"/>
      <point x="101" y="86" type="line"/>
    </contour>
  </outline>
</glyph>
<glyph name="uni2070" format="2">
  <advance width="362"/>
  <unicode hex="2070"/>
  <outline>
    <contour>
      <point x="38" y="385" type="qcurve" smooth="yes"/>
      <point x="38" y="583" type="line" smooth="yes"/>
      <point x="38" y="690"/>
      <point x="145" y="690" type="qcurve" smooth="yes"/>
      <point x="217" y="690" type="line" smooth="yes"/>
      <point x="324" y="690"/>
      <point x="324" y="583" type="qcurve" smooth="yes"/>
      <point x="324" y="385" type="line" smooth="yes"/>
      <point x="324" y="278"/>
      <point x="217" y="278" type="qcurve" smooth="yes"/>
      <point x="145" y="278" type="line" smooth="yes"/>
      <point x="38" y="278"/>
    </contour>
    <contour>
      <point x="115" y="374" type="line" smooth="yes"/>
      <point x="115" y="348"/>
      <point x="141" y="348" type="qcurve" smooth="yes"/>
      <point x="220" y="348" type="line" smooth="yes"/>
      <point x="246" y="348"/>
      <point x="246" y="374" type="qcurve" smooth="yes"/>
      <point x="246" y="594" type="line" smooth="yes"/>
      <point x="246" y="620"/>
      <point x="220" y="620" type="qcurve" smooth="yes"/>
      <point x="141" y="620" type="line" smooth="yes"/>
      <point x="115" y="620"/>
      <point x="115" y="594" type="qcurve" smooth="yes"/>
    </contour>
  </outline>
</glyph>
<glyph name="uni20BA" format="2">
  <advance width="578"/>
  <unicode hex="20BA"/>
  <outline>
    <contour>
      <point x="23" y="306" type="line"/>
      <point x="120" y="345" type="line"/>
      <point x="120" y="413" type="line"/>
      <point x="50" y="385" type="line"/>
      <point x="23" y="451" type="line"/>
      <point x="120" y="490" type="line"/>
      <point x="120" y="690" type="line"/>
      <point x="222" y="690" type="line"/>
      <point x="222" y="531" type="line"/>
      <point x="405" y="604" type="line"/>
      <point x="431" y="538" type="line"/>
      <point x="222" y="454" type="line"/>
      <point x="222" y="386" type="line"/>
      <point x="405" y="459" type="line"/>
      <point x="431" y="393" type="line"/>
      <point x="222" y="310" type="line"/>
      <point x="222" y="92" type="line"/>
      <point x="274" y="92" type="line" smooth="yes"/>
      <point x="430" y="92"/>
      <point x="430" y="248" type="qcurve" smooth="yes"/>
      <point x="430" y="300" type="line"/>
      <point x="528" y="300" type="line"/>
      <point x="528" y="260" type="line" smooth="yes"/>
      <point x="528" y="0"/>
      <point x="268" y="0" type="qcurve" smooth="yes"/>
      <point x="120" y="0" type="line"/>
      <point x="120" y="268" type="line"/>
      <point x="50" y="240" type="line"/>
    </contour>
  </outline>
</glyph>
<glyph name="trademark" format="2">
  <advance width="786"/>
  <unicode hex="2122"/>
  <outline>
    <contour>
      <point x="20" y="625" type="line"/>
      <point x="20" y="690" type="line"/>
      <point x="306" y="690" type="line"/>
      <point x="306" y="625" type="line"/>
      <point x="200" y="625" type="line"/>
      <point x="200" y="338" type="line"/>
      <point x="127" y="338" type="line"/>
      <point x="127" y="625" type="line"/>
    </contour>
    <contour>
      <point x="351" y="338" type="line"/>
      <point x="351" y="690" type="line"/>
      <point x="438" y="690" type="line"/>
      <point x="540" y="474" type="line"/>
      <point x="641" y="690" type="line"/>
      <point x="728" y="690" type="line"/>
      <point x="728" y="338" type="line"/>
      <point x="655" y="338" type="line"/>
      <point x="655" y="563" type="line"/>
      <point x="570" y="381" type="line"/>
      <point x="509" y="381" type="line"/>
      <point x="424" y="563" type="line"/>
      <point x="424" y="338" type="line"/>
    </contour>
  </outline>
</glyph>
<glyph name="partialdiff" format="2">
  <advance width="580"/>
  <unicode hex="2202"/>
  <outline>
    <contour>
      <point x="70" y="154" type="qcurve" smooth="yes"/>
      <point x="70" y="312" type="line" smooth="yes"/>
      <point x="70" y="466"/>
      <point x="223" y="466" type="qcurve" smooth="yes"/>
      <point x="409" y="466" type="line"/>
      <point x="409" y="522" type="line" smooth="yes"/>
      <point x="409" y="655"/>
      <point x="276" y="655" type="qcurve" smooth="yes"/>
      <point x="114" y="655" type="line"/>
      <point x="114" y="706" type="line"/>
      <point x="160" y="740" type="line"/>
      <point x="274" y="740" type="line" smooth="yes"/>
      <point x="507" y="740"/>
      <point x="507" y="507" type="qcurve" smooth="yes"/>
      <point x="507" y="154" type="line" smooth="yes"/>
      <point x="507" y="0"/>
      <point x="353" y="0" type="qcurve" smooth="yes"/>
      <point x="223" y="0" type="line" smooth="yes"/>
      <point x="70" y="0"/>
    </contour>
    <contour>
      <point x="167" y="144" type="line" smooth="yes"/>
      <point x="167" y="85"/>
      <point x="226" y="85" type="qcurve" smooth="yes"/>
      <point x="351" y="85" type="line" smooth="yes"/>
      <point x="409" y="85"/>
      <point x="409" y="144" type="qcurve" smooth="yes"/>
      <point x="409" y="381" type="line"/>
      <point x="226" y="381" type="line" smooth="yes"/>
      <point x="167" y="381"/>
      <point x="167" y="322" type="qcurve" smooth="yes"/>
    </contour>
  </outline>
</glyph>
<glyph name="Delta" format="2">
  <advance width="651"/>
  <unicode hex="2206"/>
  <outline>
    <contour>
      <point x="19" y="21" type="line"/>
      <point x="243" y="690" type="line"/>
      <point x="408" y="690" type="line"/>
      <point x="631" y="21" type="line"/>
      <point x="618" y="0" type="line"/>
      <point x="33" y="0" type="line"/>
    </contour>
    <contour>
      <point x="146" y="92" type="line"/>
      <point x="505" y="92" type="line"/>
      <point x="338" y="598" type="line"/>
      <point x="313" y="598" type="line"/>
    </contour>
  </outline>
</glyph>
<glyph name="product" format="2">
  <advance width="702"/>
  <unicode hex="220F"/>
  <outline>
    <contour>
      <point x="88" y="-100" type="line"/>
      <point x="88" y="690" type="line"/>
      <point x="615" y="690" type="line"/>
      <point x="615" y="-100" type="line"/>
      <point x="513" y="-100" type="line"/>
      <point x="513" y="598" type="line"/>
      <point x="190" y="598" type="line"/>
      <point x="190" y="-100" type="line"/>
    </contour>
  </outline>
</glyph>
<glyph name="summation" format="2">
  <advance width="586"/>
  <unicode hex="2211"/>
  <outline>
    <contour>
      <point x="50" y="-20" type="line"/>
      <point x="271" y="295" type="line"/>
      <point x="50" y="610" type="line"/>
      <point x="50" y="690" type="line"/>
      <point x="536" y="690" type="line"/>
      <point x="536" y="598" type="line"/>
      <point x="174" y="598" type="line"/>
      <point x="386" y="295" type="line"/>
      <point x="174" y="-8" type="line"/>
      <point x="536" y="-8" type="line"/>
      <point x="536" y="-100" type="line"/>
      <point x="50" y="-100" type="line"/>
    </contour>
  </outline>
</glyph>
<glyph name="infinity" format="2">
  <advance width="611"/>
  <unicode hex="221E"/>
  <outline>
    <contour>
      <point x="38" y="289" type="qcurve" smooth="yes"/>
      <point x="38" y="381" type="line" smooth="yes"/>
      <point x="38" y="488"/>
      <point x="144" y="488" type="qcurve" smooth="yes"/>
      <point x="234" y="488" type="line" smooth="yes"/>
      <point x="272" y="488"/>
      <point x="306" y="454" type="qcurve"/>
      <point x="340" y="488"/>
      <point x="378" y="488" type="qcurve" smooth="yes"/>
      <point x="467" y="488" type="line" smooth="yes"/>
      <point x="574" y="488"/>
      <point x="574" y="381" type="qcurve" smooth="yes"/>
      <point x="574" y="289" type="line" smooth="yes"/>
      <point x="574" y="182"/>
      <point x="467" y="182" type="qcurve" smooth="yes"/>
      <point x="378" y="182" type="line" smooth="yes"/>
      <point x="340" y="182"/>
      <point x="306" y="216" type="qcurve"/>
      <point x="272" y="182"/>
      <point x="234" y="182" type="qcurve" smooth="yes"/>
      <point x="144" y="182" type="line" smooth="yes"/>
      <point x="38" y="182"/>
    </contour>
    <contour>
      <point x="115" y="278" type="line" smooth="yes"/>
      <point x="115" y="252"/>
      <point x="141" y="252" type="qcurve" smooth="yes"/>
      <point x="241" y="252" type="line" smooth="yes"/>
      <point x="267" y="252"/>
      <point x="267" y="278" type="qcurve" smooth="yes"/>
      <point x="267" y="392" type="line" smooth="yes"/>
      <point x="267" y="418"/>
      <point x="241" y="418" type="qcurve" smooth="yes"/>
      <point x="141" y="418" type="line" smooth="yes"/>
      <point x="115" y="418"/>
      <point x="115" y="392" type="qcurve" smooth="yes"/>
    </contour>
    <contour>
      <point x="344" y="278" type="line" smooth="yes"/>
      <point x="344" y="252"/>
      <point x="370" y="252" type="qcurve" smooth="yes"/>
      <point x="470" y="252" type="line" smooth="yes"/>
      <point x="496" y="252"/>
      <point x="496" y="278" type="qcurve" smooth="yes"/>
      <point x="496" y="392" type="line" smooth="yes"/>
      <point x="496" y="418"/>
      <point x="470" y="418" type="qcurve" smooth="yes"/>
      <point x="370" y="418" type="line" smooth="yes"/>
      <point x="344" y="418"/>
      <point x="344" y="392" type="qcurve" smooth="yes"/>
    </contour>
  </outline>
</glyph>
<glyph name="integral" format="2">
  <advance width="437"/>
  <unicode hex="222B"/>
  <outline>
    <contour>
      <point x="20" y="-115" type="line"/>
      <point x="111" y="-115" type="line" smooth="yes"/>
      <point x="170" y="-115"/>
      <point x="170" y="-56" type="qcurve" smooth="yes"/>
      <point x="170" y="586" type="line" smooth="yes"/>
      <point x="170" y="740"/>
      <point x="324" y="740" type="qcurve" smooth="yes"/>
      <point x="371" y="740" type="line"/>
      <point x="417" y="706" type="line"/>
      <point x="417" y="655" type="line"/>
      <point x="326" y="655" type="line" smooth="yes"/>
      <point x="267" y="655"/>
      <point x="267" y="596" type="qcurve" smooth="yes"/>
      <point x="267" y="-46" type="line" smooth="yes"/>
      <point x="267" y="-200"/>
      <point x="114" y="-200" type="qcurve" smooth="yes"/>
      <point x="66" y="-200" type="line"/>
      <point x="20" y="-166" type="line"/>
    </contour>
  </outline>
</glyph>
<glyph name="notequal" format="2">
  <advance width="578"/>
  <unicode hex="2260"/>
  <outline>
    <contour>
      <point x="63" y="183" type="line"/>
      <point x="63" y="267" type="line"/>
      <point x="211" y="267" type="line"/>
      <point x="280" y="403" type="line"/>
      <point x="63" y="403" type="line"/>
      <point x="63" y="487" type="line"/>
      <point x="323" y="487" type="line"/>
      <point x="384" y="608" type="line"/>
      <point x="453" y="573" type="line"/>
      <point x="410" y="487" type="line"/>
      <point x="515" y="487" type="line"/>
      <point x="515" y="403" type="line"/>
      <point x="367" y="403" type="line"/>
      <point x="298" y="267" type="line"/>
      <point x="515" y="267" type="line"/>
      <point x="515" y="183" type="line"/>
      <point x="255" y="183" type="line"/>
      <point x="194" y="62" type="line"/>
      <point x="125" y="97" type="line"/>
      <point x="168" y="183" type="line"/>
    </contour>
  </outline>
</glyph>
<glyph name="uni0302.cap" format="2">
  <advance width="0"/>
  <outline>
    <contour>
      <point x="-467" y="786" type="line"/>
      <point x="-323" y="927" type="line"/>
      <point x="-179" y="786" type="line"/>
      <point x="-224" y="739" type="line"/>
      <point x="-323" y="833" type="line"/>
      <point x="-422" y="739" type="line"/>
    </contour>
  </outline>
</glyph>
<glyph name="uni0306.cap" format="2">
  <advance width="0"/>
  <outline>
    <contour>
      <point x="-452" y="831" type="qcurve" smooth="yes"/>
      <point x="-452" y="891" type="line"/>
      <point x="-390" y="891" type="line"/>
      <point x="-390" y="832" type="line" smooth="yes"/>
      <point x="-390" y="817"/>
      <point x="-375" y="817" type="qcurve" smooth="yes"/>
      <point x="-271" y="817" type="line" smooth="yes"/>
      <point x="-256" y="817"/>
      <point x="-256" y="832" type="qcurve" smooth="yes"/>
      <point x="-256" y="891" type="line"/>
      <point x="-194" y="891" type="line"/>
      <point x="-194" y="831" type="line" smooth="yes"/>
      <point x="-194" y="755"/>
      <point x="-270" y="755" type="qcurve" smooth="yes"/>
      <point x="-376" y="755" type="line" smooth="yes"/>
      <point x="-452" y="755"/>
    </contour>
  </outline>
</glyph>
<glyph name="uni0307.cap" format="2">
  <advance width="0"/>
  <outline>
    <contour>
      <point x="-374" y="772" type="line"/>
      <point x="-374" y="876" type="line"/>
      <point x="-272" y="876" type="line"/>
      <point x="-272" y="772" type="line"/>
    </contour>
  </outline>
</glyph>
<glyph name="uni0308.cap" format="2">
  <advance width="0"/>
  <outline>
    <contour>
      <point x="-462" y="769" type="line"/>
      <point x="-462" y="867" type="line"/>
      <point x="-370" y="867" type="line"/>
      <point x="-370" y="769" type="line"/>
    </contour>
    <contour>
      <point x="-276" y="769" type="line"/>
      <point x="-276" y="867" type="line"/>
      <point x="-184" y="867" type="line"/>
      <point x="-184" y="769" type="line"/>
    </contour>
  </outline>
</glyph>
<glyph name="uni030C.alt" format="2">
  <advance width="0"/>
  <outline>
    <contour>
      <point x="-58" y="589" type="line"/>
      <point x="-23" y="762" type="line"/>
      <point x="47" y="762" type="line"/>
      <point x="58" y="746" type="line"/>
      <point x="1" y="575" type="line"/>
    </contour>
  </outline>
</glyph>
<glyph name="uni0326.alt" format="2">
  <advance width="0"/>
  <outline>
    <contour>
      <point x="-37" y="612" type="line"/>
      <point x="18" y="748" type="line"/>
      <point x="85" y="729" type="line"/>
      <point x="54" y="596" type="line"/>
      <point x="-27" y="596" type="line"/>
    </contour>
  </outline>
</glyph>
<glyph name="zero.zero" format="2">
  <advance width="578"/>
  <outline>
    <contour>
      <point x="60" y="158" type="qcurve" smooth="yes"/>
      <point x="60" y="532" type="line" smooth="yes"/>
      <point x="60" y="690"/>
      <point x="218" y="690" type="qcurve" smooth="yes"/>
      <point x="360" y="690" type="line" smooth="yes"/>
      <point x="518" y="690"/>
      <point x="518" y="532" type="qcurve" smooth="yes"/>
      <point x="518" y="158" type="line" smooth="yes"/>
      <point x="518" y="0"/>
      <point x="360" y="0" type="qcurve" smooth="yes"/>
      <point x="218" y="0" type="line" smooth="yes"/>
      <point x="60" y="0"/>
    </contour>
    <contour>
      <point x="162" y="149" type="line" smooth="yes"/>
      <point x="162" y="92"/>
      <point x="219" y="92" type="qcurve" smooth="yes"/>
      <point x="359" y="92" type="line" smooth="yes"/>
      <point x="416" y="92"/>
      <point x="416" y="149" type="qcurve" smooth="yes"/>
      <point x="416" y="541" type="line" smooth="yes"/>
      <point x="416" y="598"/>
      <point x="359" y="598" type="qcurve" smooth="yes"/>
      <point x="219" y="598" type="line" smooth="yes"/>
      <point x="162" y="598"/>
      <point x="162" y="541" type="qcurve" smooth="yes"/>
    </contour>
    <contour>
      <point x="241" y="283" type="line"/>
      <point x="241" y="407" type="line"/>
      <point x="337" y="407" type="line"/>
      <point x="337" y="283" type="line"/>
    </contour>
  </outline>
</glyph>
